# Blender v2.93.9 OBJ File: 'CMDL_F856C70D.blend'
# www.blender.org
mtllib CMDL_F856C70D.mtl
o CMDL_F856C70D
v -4.684665 0.217271 -3.081908
v -4.684665 0.217271 -2.926688
v 3.773427 0.217271 -2.926688
v 3.773427 0.217271 -3.081908
v -3.773427 0.217271 -2.081908
v -3.773427 0.217271 -1.926689
v 4.684665 0.217271 -1.926689
v 4.684665 0.217271 -2.081908
v -4.684665 0.217271 -1.081909
v -4.684665 0.217271 -0.926689
v 3.773427 0.217271 -0.926689
v 3.773427 0.217271 -1.081909
v -3.773427 0.217271 -0.081909
v -3.773427 0.217271 0.073311
v 4.684665 0.217271 0.073311
v 4.684665 0.217271 -0.081909
v -4.684665 0.217270 0.918091
v -4.684665 0.217270 1.073311
v 3.773427 0.217270 1.073311
v 3.773427 0.217270 0.918091
v -3.773427 0.217270 1.918091
v -3.773427 0.217270 2.073311
v 4.684665 0.217270 2.073311
v 4.684665 0.217270 1.918091
v -4.684665 0.217270 2.918092
v -4.684665 0.217270 3.073312
v 3.773427 0.217270 3.073312
v 3.773427 0.217270 2.918092
v 2.509559 0.217270 4.624154
v 2.664779 0.217270 4.624154
v 2.664779 0.217271 -3.833939
v 2.509559 0.217271 -3.833939
v 1.209559 0.217270 3.833939
v 1.364779 0.217270 3.833939
v 1.364779 0.217271 -4.624154
v 1.209559 0.217271 -4.624154
v -0.090441 0.217270 4.624154
v 0.064779 0.217270 4.624154
v 0.064779 0.217271 -3.833939
v -0.090441 0.217271 -3.833939
v -1.390441 0.217270 3.833939
v -1.235221 0.217270 3.833939
v -1.235221 0.217271 -4.624154
v -1.390441 0.217271 -4.624154
v -2.690441 0.217270 4.624154
v -2.535222 0.217270 4.624154
v -2.535222 0.217271 -3.833939
v -2.690441 0.217271 -3.833939
v -4.684665 0.204006 -2.926688
v -4.684665 0.204007 -3.081908
v 3.773427 0.204007 -3.081908
v 3.773427 0.204006 -2.926688
v -3.773427 0.204006 -1.926689
v -3.773427 0.204006 -2.081908
v 4.684665 0.204006 -2.081908
v 4.684665 0.204006 -1.926689
v -4.684665 0.204006 -0.926689
v -4.684665 0.204006 -1.081909
v 3.773427 0.204006 -1.081909
v 3.773427 0.204006 -0.926689
v -3.773427 0.204006 0.073311
v -3.773427 0.204006 -0.081909
v 4.684665 0.204006 -0.081909
v 4.684665 0.204006 0.073311
v -4.684665 0.204006 1.073311
v -4.684665 0.204006 0.918091
v 3.773427 0.204006 0.918091
v 3.773427 0.204006 1.073311
v -3.773427 0.204006 2.073311
v -3.773427 0.204006 1.918091
v 4.684665 0.204006 1.918091
v 4.684665 0.204006 2.073311
v -4.684665 0.204005 3.073312
v -4.684665 0.204006 2.918092
v 3.773427 0.204006 2.918092
v 3.773427 0.204005 3.073312
v 2.664779 0.241228 4.624154
v 2.509559 0.241228 4.624154
v 2.509559 0.241229 -3.833939
v 2.664779 0.241229 -3.833939
v 1.364779 0.241228 3.833939
v 1.209559 0.241228 3.833939
v 1.209559 0.241229 -4.624154
v 1.364779 0.241229 -4.624154
v 0.064779 0.241228 4.624154
v -0.090441 0.241228 4.624154
v -0.090441 0.241229 -3.833939
v 0.064779 0.241229 -3.833939
v -1.235221 0.241228 3.833939
v -1.390441 0.241228 3.833939
v -1.390441 0.241229 -4.624154
v -1.235221 0.241229 -4.624154
v -2.535222 0.241228 4.624154
v -2.690441 0.241228 4.624154
v -2.690441 0.241229 -3.833939
v -2.535222 0.241229 -3.833939
v -3.976216 -0.000001 4.023469
v 4.052373 -0.000001 4.023471
v 4.052383 0.416620 4.023470
v -3.976211 0.416618 4.023470
v -3.976210 0.416622 -4.005120
v 4.052383 0.416622 -4.005120
v 4.052373 0.000001 -4.005120
v -3.976216 0.000001 -4.005120
v 3.317861 0.416621 3.688945
v 3.717861 0.416621 3.288946
v 3.717860 -0.000000 3.288948
v 3.317855 -0.000001 3.688946
v -3.241689 0.416618 3.688944
v 3.717860 0.416622 -3.270596
v -3.241689 0.416624 -3.670595
v 3.317861 0.416622 -3.670594
v -3.641694 0.416624 -3.270596
v -3.641689 0.416618 3.288945
v -3.641693 -0.000003 3.288945
v -3.641698 0.000003 -3.270595
v -3.241689 -0.000003 3.688944
v 3.317860 0.000003 -3.670592
v -3.241688 0.000003 -3.670591
v 3.717859 0.000001 -3.270596
v -3.976211 -0.416619 4.023470
v 4.052383 -0.416622 4.023470
v -3.976210 -0.416620 -4.005120
v 4.052383 -0.416620 -4.005120
v 3.317861 -0.416622 3.688945
v 3.717861 -0.416622 3.288946
v -3.241689 -0.416619 3.688944
v 3.717860 -0.416621 -3.270596
v -3.241689 -0.416623 -3.670595
v 3.317861 -0.416621 -3.670594
v -3.641694 -0.416623 -3.270596
v -3.641698 -0.000002 -3.270595
v -3.641693 0.000002 3.288945
v -3.641689 -0.416619 3.288945
v -3.241689 0.000002 3.688944
v 3.317860 -0.000002 -3.670592
v -3.241688 -0.000002 -3.670591
vt 1.085566 -1.096571
vt -0.063318 -1.096571
vt -0.063318 -2.954428
vt 1.085566 -2.954428
vt 1.085566 -1.096571
vt -0.063318 -1.096571
vt -0.063318 -2.954428
vt 1.085566 -2.954428
vt 1.085566 -1.096571
vt -0.063318 -1.096571
vt -0.063318 -2.954428
vt 1.085566 -2.954428
vt 1.085566 -1.096571
vt -0.063318 -1.096571
vt -0.063318 -2.954428
vt 1.085566 -2.954428
vt 1.085566 -1.096571
vt -0.063318 -1.096571
vt -0.063318 -2.954428
vt 1.085566 -2.954428
vt 1.085566 -1.096571
vt -0.063318 -1.096571
vt -0.063318 -2.954428
vt 1.085566 -2.954428
vt 1.085566 -1.096571
vt -0.063318 -1.096571
vt -0.063318 -2.954428
vt 1.085566 -2.954428
vt 1.085566 -1.096571
vt -0.063318 -1.096571
vt -0.063318 -2.954428
vt 1.085566 -2.954428
vt 1.085566 -1.096571
vt -0.063318 -1.096571
vt -0.063318 -2.954428
vt 1.085566 -2.954428
vt 1.085566 -1.096571
vt -0.063318 -1.096571
vt -0.063318 -2.954428
vt 1.085566 -2.954428
vt 1.085566 -1.096571
vt -0.063318 -1.096571
vt -0.063318 -2.954428
vt 1.085566 -2.954428
vt 1.085566 -1.096571
vt -0.063318 -1.096571
vt -0.063318 -2.954428
vt 1.085566 -2.954428
vt -0.063318 -1.096571
vt 1.085566 -1.096571
vt 1.085566 -2.954428
vt -0.063318 -2.954428
vt -0.063318 -1.096571
vt 1.085566 -1.096571
vt 1.085566 -2.954428
vt -0.063318 -2.954428
vt -0.063318 -1.096571
vt 1.085566 -1.096571
vt 1.085566 -2.954428
vt -0.063318 -2.954428
vt -0.063318 -1.096571
vt 1.085566 -1.096571
vt 1.085566 -2.954428
vt -0.063318 -2.954428
vt -0.063318 -1.096571
vt 1.085566 -1.096571
vt 1.085566 -2.954428
vt -0.063318 -2.954428
vt -0.063318 -1.096571
vt 1.085566 -1.096571
vt 1.085566 -2.954428
vt -0.063318 -2.954428
vt -0.063318 -1.096571
vt 1.085566 -1.096571
vt 1.085566 -2.954428
vt -0.063318 -2.954428
vt -0.063318 -1.096571
vt 1.085566 -1.096571
vt 1.085566 -2.954428
vt -0.063318 -2.954428
vt -0.063318 -1.096571
vt 1.085566 -1.096571
vt 1.085566 -2.954428
vt -0.063318 -2.954428
vt -0.063318 -1.096571
vt 1.085566 -1.096571
vt 1.085566 -2.954428
vt -0.063318 -2.954428
vt -0.063318 -1.096571
vt 1.085566 -1.096571
vt 1.085566 -2.954428
vt -0.063318 -2.954428
vt -0.063318 -1.096571
vt 1.085566 -1.096571
vt 1.085566 -2.954428
vt -0.063318 -2.954428
vt 1.017126 -0.061548
vt 1.018985 0.086793
vt -1.027954 0.086793
vt -1.026095 -0.061548
vt -1.027954 0.086793
vt 1.018985 0.086793
vt 1.017126 -0.061548
vt -1.026095 -0.061548
vt -1.027954 0.086793
vt 1.018985 0.086793
vt -1.026095 -0.061548
vt -1.027954 0.086793
vt 1.018985 0.086793
vt 1.017126 -0.061548
vt 0.093411 0.086793
vt -0.102380 0.086793
vt -0.102559 -0.061548
vt 0.093589 -0.061548
vt 1.020311 -0.913207
vt -1.029280 -0.913207
vt -0.838157 -1.061548
vt 0.829188 -1.061548
vt -0.840682 -1.061548
vt -1.027954 -0.913207
vt 1.018985 -0.913207
vt 0.831713 -1.061548
vt 0.831713 -1.061548
vt -0.840682 -1.061548
vt -1.027954 -0.913207
vt 1.018985 -0.913207
vt 1.017126 0.086793
vt -1.026095 0.086793
vt -1.027954 -0.061548
vt 1.018985 -0.061548
vt 1.017126 0.086793
vt -1.026095 0.086793
vt -1.027954 -0.061548
vt 1.018985 -0.061548
vt -1.026095 -0.061548
vt -1.027954 0.086793
vt 1.018985 0.086793
vt 1.017126 -0.061548
vt 1.017126 -0.061548
vt -1.026095 -0.061548
vt -1.027954 0.086793
vt 1.018985 0.086793
vt -1.029280 -0.913207
vt -0.838157 -1.061548
vt 0.829188 -1.061548
vt 1.020311 -0.913207
vt 0.093411 -0.061548
vt -0.102380 -0.061548
vt -0.102559 0.086793
vt 0.093589 0.086793
vt 0.093411 0.086793
vt -0.102380 0.086793
vt -0.102559 -0.061548
vt 0.093589 -0.061548
vt 0.093411 0.086793
vt -0.102380 0.086793
vt -0.102559 -0.061548
vt 0.093589 -0.061548
vt 1.018985 0.086793
vt -1.027954 0.086793
vt 1.018985 0.086793
vt -1.027954 0.086793
vt 0.093411 0.086793
vt -0.102380 0.086793
vt 1.020311 -0.913207
vt 0.829188 -1.061548
vt -0.838157 -1.061548
vt -1.029280 -0.913207
vt 1.018985 -0.913207
vt -1.027954 -0.913207
vt -0.840682 -1.061548
vt 0.831713 -1.061548
vt 0.831713 -1.061548
vt 1.018985 -0.913207
vt -1.027954 -0.913207
vt -0.840682 -1.061548
vt 1.017126 0.086793
vt 1.018985 -0.061548
vt -1.027954 -0.061548
vt -1.026095 0.086793
vt 1.017126 0.086793
vt 1.018985 -0.061548
vt -1.026095 0.086793
vt 1.018985 0.086793
vt -1.027954 0.086793
vt -1.026095 -0.061548
vt 1.017126 -0.061548
vt 1.018985 0.086793
vt -1.027954 0.086793
vt 0.829188 -1.061548
vt -0.838157 -1.061548
vt -1.029280 -0.913207
vt 1.020311 -0.913207
vt 0.093411 -0.061548
vt 0.093589 0.086793
vt -0.102559 0.086793
vt -0.102380 -0.061548
vt 0.093411 0.086793
vt -0.102559 -0.061548
vt -0.102380 0.086793
vt 0.093411 0.086793
vt 0.093589 -0.061548
vt -0.102559 -0.061548
vt -0.102380 0.086793
vt -1.027954 -0.061548
vt -1.026095 0.086793
vt 1.017126 0.086793
vt 1.018985 -0.061548
vt 1.017126 0.086793
vt -1.026095 0.086793
vt 0.327101 -3.082591
vt 0.271095 -3.083200
vt 0.299033 -2.905573
vt 0.327101 -3.082591
vt 0.271095 -3.083200
vt 0.299033 -2.905573
vt -0.687236 -2.066784
vt -0.742963 -1.908879
vt -0.796902 -2.071069
vt -0.687236 -2.066784
vt -0.742963 -1.908879
vt -0.796902 -2.071069
vt 0.327101 -3.082591
vt 0.299033 -2.905573
vt 0.271095 -3.083200
vt 0.327101 -3.082591
vt 0.299033 -2.905573
vt 0.271095 -3.083200
vt -0.687236 -2.066784
vt -0.796902 -2.071069
vt -0.742963 -1.908879
vt -0.687236 -2.066784
vt -0.796902 -2.071069
vt -0.742963 -1.908879
vn 0.0000 1.0000 0.0000
vn 0.0000 -1.0000 -0.0000
vn 0.0000 0.0000 1.0000
vn 1.0000 0.0000 -0.0000
vn -1.0000 0.0000 -0.0000
vn -0.7071 0.0000 -0.7071
vn 0.0000 -0.0000 -1.0000
vn 0.7071 -0.0000 -0.7071
vn -0.7071 0.0000 0.7071
vn 0.7071 0.0000 0.7071
usemtl MAT_0_0
s 1
f 1/1/1 2/2/1 3/3/1
f 1/1/1 3/3/1 4/4/1
f 5/5/1 6/6/1 7/7/1
f 5/5/1 7/7/1 8/8/1
f 9/9/1 10/10/1 11/11/1
f 9/9/1 11/11/1 12/12/1
f 13/13/1 14/14/1 15/15/1
f 13/13/1 15/15/1 16/16/1
f 17/17/1 18/18/1 19/19/1
f 17/17/1 19/19/1 20/20/1
f 21/21/1 22/22/1 23/23/1
f 21/21/1 23/23/1 24/24/1
f 25/25/1 26/26/1 27/27/1
f 25/25/1 27/27/1 28/28/1
f 29/29/1 30/30/1 31/31/1
f 29/29/1 31/31/1 32/32/1
f 33/33/1 34/34/1 35/35/1
f 33/33/1 35/35/1 36/36/1
f 37/37/1 38/38/1 39/39/1
f 37/37/1 39/39/1 40/40/1
f 41/41/1 42/42/1 43/43/1
f 41/41/1 43/43/1 44/44/1
f 45/45/1 46/46/1 47/47/1
f 45/45/1 47/47/1 48/48/1
f 49/49/2 50/50/2 51/51/2
f 49/49/2 51/51/2 52/52/2
f 53/53/2 54/54/2 55/55/2
f 53/53/2 55/55/2 56/56/2
f 57/57/2 58/58/2 59/59/2
f 57/57/2 59/59/2 60/60/2
f 61/61/2 62/62/2 63/63/2
f 61/61/2 63/63/2 64/64/2
f 65/65/2 66/66/2 67/67/2
f 65/65/2 67/67/2 68/68/2
f 69/69/2 70/70/2 71/71/2
f 69/69/2 71/71/2 72/72/2
f 73/73/2 74/74/2 75/75/2
f 73/73/2 75/75/2 76/76/2
f 77/77/2 78/78/2 79/79/2
f 77/77/2 79/79/2 80/80/2
f 81/81/2 82/82/2 83/83/2
f 81/81/2 83/83/2 84/84/2
f 85/85/2 86/86/2 87/87/2
f 85/85/2 87/87/2 88/88/2
f 89/89/2 90/90/2 91/91/2
f 89/89/2 91/91/2 92/92/2
f 93/93/2 94/94/2 95/95/2
f 93/93/2 95/95/2 96/96/2
usemtl MAT_0_1
f 97/97/3 121/98/3 122/99/3
f 97/97/3 122/99/3 98/100/3
f 97/97/3 98/100/3 99/101/3
f 97/97/3 99/101/3 100/102/3
f 98/103/4 103/104/4 102/105/4
f 98/103/4 102/105/4 99/106/4
f 97/107/5 100/108/5 101/109/5
f 97/107/5 101/109/5 104/110/5
f 105/111/6 106/112/6 107/113/6
f 105/111/6 107/113/6 108/114/6
f 100/115/1 99/116/1 105/117/1
f 100/115/1 105/117/1 109/118/1
f 106/119/1 99/120/1 102/121/1
f 106/119/1 102/121/1 110/122/1
f 111/123/1 112/124/1 102/125/1
f 111/123/1 102/125/1 101/126/1
f 113/127/4 114/128/4 115/129/4
f 113/127/4 115/129/4 116/130/4
f 109/131/7 105/132/7 108/133/7
f 109/131/7 108/133/7 117/134/7
f 118/135/3 112/136/3 111/137/3
f 118/135/3 111/137/3 119/138/3
f 120/139/5 107/140/5 106/141/5
f 120/139/5 106/141/5 110/142/5
f 100/143/1 114/144/1 113/145/1
f 100/143/1 113/145/1 101/146/1
f 117/147/8 115/148/8 114/149/8
f 117/147/8 114/149/8 109/150/8
f 110/151/9 112/152/9 118/153/9
f 110/151/9 118/153/9 120/154/9
f 111/155/10 113/156/10 116/157/10
f 111/155/10 116/157/10 119/158/10
f 98/103/4 122/159/4 124/160/4
f 98/103/4 124/160/4 103/104/4
f 123/161/5 121/162/5 97/107/5
f 123/161/5 97/107/5 104/110/5
f 125/163/6 108/114/6 107/113/6
f 125/163/6 107/113/6 126/164/6
f 121/165/2 127/166/2 125/167/2
f 121/165/2 125/167/2 122/168/2
f 124/169/2 122/170/2 126/171/2
f 124/169/2 126/171/2 128/172/2
f 129/173/2 123/174/2 124/175/2
f 129/173/2 124/175/2 130/176/2
f 131/177/4 132/178/4 133/179/4
f 131/177/4 133/179/4 134/180/4
f 127/181/7 135/182/7 108/133/7
f 127/181/7 108/133/7 125/183/7
f 129/184/3 130/185/3 136/186/3
f 129/184/3 136/186/3 137/187/3
f 120/139/5 128/188/5 126/189/5
f 120/139/5 126/189/5 107/140/5
f 131/190/2 134/191/2 121/192/2
f 131/190/2 121/192/2 123/193/2
f 135/194/8 127/195/8 134/196/8
f 135/194/8 134/196/8 133/197/8
f 128/198/9 120/154/9 136/199/9
f 128/198/9 136/199/9 130/200/9
f 129/201/10 137/202/10 132/203/10
f 129/201/10 132/203/10 131/204/10
f 103/205/7 124/206/7 123/207/7
f 103/205/7 123/207/7 104/208/7
f 103/205/7 104/208/7 101/209/7
f 103/205/7 101/209/7 102/210/7
f 106/211/1 105/212/1 99/213/1
f 109/214/1 114/215/1 100/216/1
f 110/217/1 102/218/1 112/219/1
f 111/220/1 101/221/1 113/222/1
f 126/223/2 122/224/2 125/225/2
f 127/226/2 121/227/2 134/228/2
f 128/229/2 130/230/2 124/231/2
f 129/232/2 131/233/2 123/234/2
